<?xml version="1.0" encoding="UTF-8" standalone="no"?>
<!-- Created with Inkscape (http://www.inkscape.org/) -->

<svg
   version="1.1"
   id="svg824"
   width="502.14841"
   height="296.5"
   viewBox="0 0 502.1484 296.5"
   sodipodi:docname="rapidrx-favicon.svg"
   inkscape:version="1.1 (c68e22c387, 2021-05-23)"
   xmlns:inkscape="http://www.inkscape.org/namespaces/inkscape"
   xmlns:sodipodi="http://sodipodi.sourceforge.net/DTD/sodipodi-0.dtd"
   xmlns="http://www.w3.org/2000/svg"
   xmlns:svg="http://www.w3.org/2000/svg">
  <defs
     id="defs828" />
  <sodipodi:namedview
     id="namedview826"
     pagecolor="#ffffff"
     bordercolor="#999999"
     borderopacity="1"
     inkscape:pageshadow="0"
     inkscape:pageopacity="0"
     inkscape:pagecheckerboard="0"
     showgrid="false"
     fit-margin-top="0"
     fit-margin-left="0"
     fit-margin-right="0"
     fit-margin-bottom="0"
     inkscape:zoom="0.6863832"
     inkscape:cx="-394.09473"
     inkscape:cy="212.70917"
     inkscape:window-width="2250"
     inkscape:window-height="1438"
     inkscape:window-x="-6"
     inkscape:window-y="-6"
     inkscape:window-maximized="1"
     inkscape:current-layer="g830" />
  <g
     inkscape:groupmode="layer"
     inkscape:label="Image"
     id="g830"
     transform="translate(-1030.5,-57.5)">
    <path
       style="fill:#f9c784;stroke-width:0.5;fill-opacity:1"
       d="M 1030.5,205.75 V 57.5 l 64.375,0.0098 c 84.4455,0.01285 96.7756,0.492115 117.375,4.56227 23.0388,4.552115 40.4101,17.66165 50.9532,38.45243 6.4779,12.77443 9.2834,25.02418 9.2927,40.57489 0.024,39.24222 -21.2241,67.1439 -59.4959,78.12789 -2.6125,0.74979 -7.7734,1.96939 -11.4686,2.71023 l -6.7187,1.34697 6.7187,4.42219 c 8.8945,5.85435 14.081,9.94357 20.6637,16.29202 10.8123,10.4277 19.6737,22.5931 40.0635,55.00131 20.5979,32.73918 34.2414,54.56591 34.2414,54.77914 0,0.12148 -16.0464,0.22086 -35.6587,0.22086 h -35.6588 l -25.2162,-37.60109 C 1163.3715,261.83083 1156.1396,251.7 1148.4215,244.19225 1136.9859,233.0684 1128.3887,230.51272 1102.375,230.5041 L 1090,230.5 V 292.25 354 h -29.75 -29.75 z M 1171,182.03138 c 8.956,-0.78918 15.2333,-1.88391 18.5998,-3.24368 9.9436,-4.0164 16.6327,-11.32995 19.6987,-21.5377 1.2039,-4.00814 1.3565,-5.34709 1.3958,-12.25 0.049,-8.70324 -0.5287,-11.7383 -3.3825,-17.75 -4.2068,-8.86164 -12.1108,-14.88533 -23.4028,-17.83548 -4.0898,-1.06849 -4.9048,-1.08987 -49.034,-1.28595 L 1090,107.92918 v 37.58908 37.5891 l 37.375,-0.26262 c 20.6067,-0.14479 40.1791,-0.5097 43.625,-0.81336 z m 142,158.52159 c 0,-7.39586 0.235,-15.77711 0.5222,-18.625 1.5302,-15.17374 6.3774,-30.4379 13.5774,-42.75605 6.0967,-10.43055 16.6828,-22.30998 26.976,-30.2716 3.2584,-2.52038 5.9109,-4.71026 5.8943,-4.86641 -0.016,-0.15615 -2.4061,-2.08391 -5.3102,-4.28391 -20.675,-15.66244 -34.4688,-37.3007 -39.364,-61.75 C 1313.4501,168.78155 1313,162.89028 1313,147.94702 V 134.5 h 25.75 25.75 l 0.01,11.875 c 0,16.36099 1.0651,22.68055 5.4205,32.28632 6.4641,14.2563 21.6873,26.98094 37.1848,31.08174 16.1453,4.27221 33.8957,1.58927 46.99,-7.10247 12.4676,-8.27575 20.6646,-19.44861 24.7196,-33.6937 1.2837,-4.50962 1.3457,-5.28999 1.5541,-19.57189 l 0.217,-14.875 h 26.0239 26.024 l -0.2865,15.125 c -0.2935,15.49261 -0.8352,21.28918 -2.8561,30.56299 -2.6539,12.17893 -8.617,25.65248 -15.8964,35.91772 -5.2789,7.44423 -15.4961,17.93623 -23.2484,23.87365 -2.9703,2.27493 -5.3205,4.21633 -5.2226,4.31422 0.098,0.0979 1.8517,1.42127 3.8973,2.94082 19.8843,14.77116 33.4341,34.29769 39.455,56.85832 2.7649,10.3606 3.5592,17.43558 3.8767,34.53228 l 0.2855,15.375 h -26.0707 -26.0707 v -12.93451 c 0,-14.6904 -0.4904,-18.70006 -3.222,-26.34284 -6.5636,-18.36417 -22.9685,-32.6728 -42.2119,-36.81793 -6.2451,-1.34524 -17.3465,-1.45832 -23.6016,-0.24041 -11.2679,2.1939 -20.5747,7.08235 -29.1088,15.28953 -7.3227,7.04217 -11.8882,14.07519 -14.8071,22.80989 -2.4421,7.30785 -3.0443,12.46932 -3.0466,26.11127 V 354 h -25.75 -25.75 v -13.44703 z"
       id="path914"
       sodipodi:nodetypes="ccssscsscssssscsssccccccssscssscccsscssscsssccccssssscccsssssssscccsssssscccccc" />
  </g>
</svg>
