<?xml version="1.0" encoding="UTF-8" standalone="no"?>
<!-- Created with Inkscape (http://www.inkscape.org/) -->

<svg
   version="1.1"
   id="svg824"
   width="1521.7103"
   height="452"
   viewBox="0 0 1521.7103 452"
   sodipodi:docname="rapidRX Logo.svg"
   inkscape:version="1.1 (c68e22c387, 2021-05-23)"
   xmlns:inkscape="http://www.inkscape.org/namespaces/inkscape"
   xmlns:sodipodi="http://sodipodi.sourceforge.net/DTD/sodipodi-0.dtd"
   xmlns="http://www.w3.org/2000/svg"
   xmlns:svg="http://www.w3.org/2000/svg">
  <defs
     id="defs828" />
  <sodipodi:namedview
     id="namedview826"
     pagecolor="#ffffff"
     bordercolor="#999999"
     borderopacity="1"
     inkscape:pageshadow="0"
     inkscape:pageopacity="0"
     inkscape:pagecheckerboard="0"
     showgrid="false"
     fit-margin-top="0"
     fit-margin-left="0"
     fit-margin-right="0"
     fit-margin-bottom="0"
     inkscape:zoom="0.6863832"
     inkscape:cx="625.74375"
     inkscape:cy="212.70917"
     inkscape:window-width="2250"
     inkscape:window-height="1438"
     inkscape:window-x="-6"
     inkscape:window-y="-6"
     inkscape:window-maximized="1"
     inkscape:current-layer="g830" />
  <g
     inkscape:groupmode="layer"
     inkscape:label="Image"
     id="g830"
     transform="translate(-10.938106,-57)">
    <path
       style="fill:#000000;stroke-width:0.5"
       d="m 440.5,373.55297 c 0,-88.6474 0.17678,-137.23611 0.51165,-140.625 2.33373,-23.61772 11.07139,-43.31318 27.2854,-61.50374 22.58805,-25.34161 52.04825,-37.94159 85.95295,-36.76162 21.5874,0.7513 39.47715,6.39573 56.25,17.74755 12.6076,8.5328 26.62125,23.08189 33.89865,35.19391 12.15335,20.22729 17.2848,43.17158 15.0729,67.39593 -2.6566,29.09523 -16.14865,54.04554 -40.22155,74.38022 -18.92355,15.98493 -43.18555,24.6096 -69.25305,24.61807 -9.5696,0.003 -23.4259,-2.07444 -32.13365,-4.81796 -7.23115,-2.2783 -18.26005,-7.20879 -23.44086,-10.47929 C 493.37603,338.04047 492.4029,337.5 492.25993,337.5 492.11697,337.5 492,376.0875 492,423.25 V 509 H 466.25 440.5 Z M 555.75,301.9792 c 6.4855,-0.61313 9.89415,-1.41078 16.01425,-3.74745 14.2414,-5.4374 27.0301,-18.22612 32.4675,-32.46752 2.3363,-6.11906 3.13445,-9.52921 3.7462,-16.00569 1.3676,-14.47775 -2.4035,-28.38588 -10.78955,-39.79299 -13.63115,-18.54162 -35.6901,-27.04851 -58.7806,-22.66832 -22.1679,4.20518 -40.91379,22.98694 -45.13079,45.21715 -4.36156,22.99226 4.1724,45.06161 22.68854,58.674 9.6281,7.07823 19.11805,10.28381 33.28445,11.24307 0.55,0.0373 3.475,-0.16627 6.5,-0.45225 z M 11.14687,294.125 c 0.146288,-41.9563 0.384064,-61.13773 0.794524,-64.09437 3.358542,-24.19239 12.585576,-43.36774 29.321194,-60.93444 19.294102,-20.25224 41.847142,-31.47607 68.449252,-34.0647 3.05697,-0.29748 16.76143,-0.53149 31.125,-0.53149 H 166.5 V 160.25 186 l -23.875,0.004 c -29.33774,0.005 -33.34168,0.3862 -42.875,4.08148 C 84.07772,196.16033 71.28722,209.5237 65.827795,225.52701 62.96382,233.92234 63,233.01989 63,296.06549 V 354 H 36.969053 10.938106 Z m 279.07127,59.10478 c -22.733,-2.48342 -43.63859,-12.05193 -60.35884,-27.6263 C 216.95582,313.5843 208.19685,301.60568 202.23257,287.82159 188.14907,255.27312 191.25436,214.59927 210.00624,186 225.13779,162.92226 248.02159,145.48281 272,138.75535 c 35.05048,-9.83388 71.36973,-2.76815 99,19.25994 4.88747,3.89651 16.21846,15.31827 19.57787,19.73471 9.72542,12.78546 16.8084,28.13298 19.8448,43 2.4987,12.23428 2.57608,14.51275 2.57673,75.875 L 413,354 H 387.25 361.5 l -0.0613,-3.125 c -0.0337,-1.71875 -0.20245,-5.39241 -0.375,-8.1637 l -0.31373,-5.03869 -5.22828,2.90692 c -19.50781,10.84633 -41.97562,15.19868 -65.30358,12.65025 z M 308.75,301.9792 c 3.025,-0.28598 6.85,-0.85835 8.5,-1.27193 23.99448,-6.01437 41.75349,-26.7526 43.69293,-51.02278 1.20968,-15.13796 -2.35636,-28.30479 -10.75727,-39.71894 C 337.67337,192.96535 317.97639,184.27388 297,186.49692 c -7.34094,0.77799 -12.9469,2.37438 -19.32448,5.50301 -35.02049,17.17985 -43.58161,63.32022 -17.03413,91.80595 5.93403,6.36727 13.60112,11.59206 21.41134,14.59088 6.1884,2.37611 11.56507,3.45018 20.19727,4.03469 0.55,0.0373 3.475,-0.16627 6.5,-0.45225 z M 687.5,244.25 V 134.5 H 713.25 739 V 244.25 354 H 713.25 687.5 Z M 868,353.67226 c -16.21095,-1.5535 -26.7967,-4.36011 -39.25,-10.40641 -21.0167,-10.204 -40.19855,-29.10642 -50.74485,-50.00565 -15.3666,-30.45149 -15.14975,-69.29838 0.554,-99.2363 5.6422,-10.75635 12.2853,-19.40092 22.41205,-29.1643 18.4366,-17.77506 39.06375,-27.29425 64.77435,-29.89258 7.2249,-0.73016 20.2831,-0.36025 27.75445,0.78621 12.40285,1.90319 26.339,6.85211 37.875,13.44993 l 3.125,1.78729 V 103.99523 57 h 25.7619 25.76185 l -0.1517,99.625 c -0.1415,92.9484 -0.2115,99.97352 -1.0444,104.82543 -3.37915,19.68515 -10.6423,36.18299 -22.36445,50.79957 -7.17295,8.94406 -19.2016,19.66053 -29.1002,25.92564 -13.07865,8.27791 -29.82,13.77994 -46.613,15.31934 -5.1314,0.47039 -14.743,0.56127 -18.75,0.17728 z m 13.64635,-51.68483 c 8.85995,-0.84017 14.43085,-2.41619 21.4512,-6.0686 8.49805,-4.42117 16.5818,-11.7465 21.98115,-19.91883 10.3869,-15.72148 12.2999,-36.71208 4.94915,-54.3045 -5.29185,-12.66496 -15.6173,-23.52286 -28.2716,-29.72949 -6.41395,-3.1459 -12.1071,-4.74183 -19.5582,-5.48263 -21.9053,-2.17788 -42.1393,7.48456 -54.60725,26.07691 -3.16635,4.72167 -5.6736,10.35548 -7.4639,16.77158 -1.2886,4.61822 -1.3718,5.52795 -1.364,14.91813 0.008,8.84523 0.14085,10.49078 1.15605,14.25 2.84495,10.53446 7.8578,19.28449 15.32715,26.75387 9.91695,9.91695 21.7829,15.51291 35.5039,16.74364 2.2,0.19733 4.3375,0.39093 4.75,0.43022 0.4125,0.0393 3.17835,-0.15885 6.14635,-0.4403 z M 1030.5,205.75 V 57.5 l 64.375,0.0098 c 84.4455,0.01285 96.7756,0.492115 117.375,4.56227 23.0388,4.552115 40.4101,17.66165 50.9532,38.45243 6.4779,12.77443 9.2834,25.02418 9.2927,40.57489 0.024,39.24222 -21.2241,67.1439 -59.4959,78.12789 -2.6125,0.74979 -7.7734,1.96939 -11.4686,2.71023 l -6.7187,1.34697 6.7187,4.42219 c 8.8945,5.85435 14.081,9.94357 20.6637,16.29202 10.8123,10.4277 19.6737,22.5931 40.0635,55.00131 20.5979,32.73918 34.2414,54.56591 34.2414,54.77914 0,0.12148 -16.0464,0.22086 -35.6587,0.22086 h -35.6588 l -25.2162,-37.60109 C 1163.3715,261.83083 1156.1396,251.7 1148.4215,244.19225 1136.9859,233.0684 1128.3887,230.51272 1102.375,230.5041 L 1090,230.5 V 292.25 354 h -29.75 -29.75 z M 1171,182.03138 c 8.956,-0.78918 15.2333,-1.88391 18.5998,-3.24368 9.9436,-4.0164 16.6327,-11.32995 19.6987,-21.5377 1.2039,-4.00814 1.3565,-5.34709 1.3958,-12.25 0.049,-8.70324 -0.5287,-11.7383 -3.3825,-17.75 -4.2068,-8.86164 -12.1108,-14.88533 -23.4028,-17.83548 -4.0898,-1.06849 -4.9048,-1.08987 -49.034,-1.28595 L 1090,107.92918 v 37.58908 37.5891 l 37.375,-0.26262 c 20.6067,-0.14479 40.1791,-0.5097 43.625,-0.81336 z m 142,158.52159 c 0,-7.39586 0.235,-15.77711 0.5222,-18.625 1.5302,-15.17374 6.3774,-30.4379 13.5774,-42.75605 6.0967,-10.43055 16.6828,-22.30998 26.976,-30.2716 3.2584,-2.52038 5.9109,-4.71026 5.8943,-4.86641 -0.016,-0.15615 -2.4061,-2.08391 -5.3102,-4.28391 -20.675,-15.66244 -34.4688,-37.3007 -39.364,-61.75 C 1313.4501,168.78155 1313,162.89028 1313,147.94702 V 134.5 h 25.75 25.75 l 0.01,11.875 c 0,16.36099 1.0651,22.68055 5.4205,32.28632 6.4641,14.2563 21.6873,26.98094 37.1848,31.08174 16.1453,4.27221 33.8957,1.58927 46.99,-7.10247 12.4676,-8.27575 20.6646,-19.44861 24.7196,-33.6937 1.2837,-4.50962 1.3457,-5.28999 1.5541,-19.57189 l 0.217,-14.875 h 26.0239 26.024 l -0.2865,15.125 c -0.2935,15.49261 -0.8352,21.28918 -2.8561,30.56299 -2.6539,12.17893 -8.617,25.65248 -15.8964,35.91772 -5.2789,7.44423 -15.4961,17.93623 -23.2484,23.87365 -2.9703,2.27493 -5.3205,4.21633 -5.2226,4.31422 0.098,0.0979 1.8517,1.42127 3.8973,2.94082 19.8843,14.77116 33.4341,34.29769 39.455,56.85832 2.7649,10.3606 3.5592,17.43558 3.8767,34.53228 l 0.2855,15.375 h -26.0707 -26.0707 v -12.93451 c 0,-14.6904 -0.4904,-18.70006 -3.222,-26.34284 -6.5636,-18.36417 -22.9685,-32.6728 -42.2119,-36.81793 -6.2451,-1.34524 -17.3465,-1.45832 -23.6016,-0.24041 -11.2679,2.1939 -20.5747,7.08235 -29.1088,15.28953 -7.3227,7.04217 -11.8882,14.07519 -14.8071,22.80989 -2.4421,7.30785 -3.0443,12.46932 -3.0466,26.11127 V 354 h -25.75 -25.75 V 340.55297 Z M 687.5,82.75 V 57 H 713.25 739 V 82.75 108.5 H 713.25 687.5 Z"
       id="path914" />
  </g>
</svg>
